NotoSerifMakasar-Regular.ufo
<glyph name="uni11EE0" format="2">
	<advance width="716"/>
	<unicode hex="11EE0"/>
	<anchor x="425" y="563" name="top"/>
	<anchor x="410" y="-17" name="bottom"/>
	<outline>
		<contour>
			<point x="73" y="178" type="line"/>
			<point x="147" y="258" type="line" smooth="yes"/>
			<point x="208" y="324"/>
			<point x="242" y="346"/>
			<point x="264" y="346" type="curve" smooth="yes"/>
			<point x="288" y="346"/>
			<point x="315" y="330"/>
			<point x="447" y="228" type="curve"/>
			<point x="456" y="228" type="line"/>
			<point x="514" y="270" type="line" smooth="yes"/>
			<point x="574" y="313"/>
			<point x="620" y="344"/>
			<point x="651" y="363" type="curve"/>
			<point x="651" y="372" type="line"/>
			<point x="543" y="521"/>
			<point x="491" y="571"/>
			<point x="426" y="571" type="curve" smooth="yes"/>
			<point x="349" y="571"/>
			<point x="292" y="513"/>
			<point x="221" y="400" type="curve"/>
			<point x="306" y="349" type="line"/>
			<point x="371" y="456"/>
			<point x="419" y="503"/>
			<point x="460" y="503" type="curve" smooth="yes"/>
			<point x="490" y="503"/>
			<point x="516" y="483"/>
			<point x="579" y="397" type="curve"/>
			<point x="602" y="424" type="line"/>
			<point x="566" y="408"/>
			<point x="523" y="381"/>
			<point x="441" y="323" type="curve" smooth="yes"/>
			<point x="407" y="299" type="line"/>
			<point x="451" y="276" type="line"/>
			<point x="332" y="365"/>
			<point x="262" y="417"/>
			<point x="211" y="417" type="curve" smooth="yes"/>
			<point x="169" y="417"/>
			<point x="147" y="396"/>
			<point x="86" y="329" type="curve" smooth="yes"/>
			<point x="5" y="240" type="line"/>
		</contour>
		<contour>
			<point x="545" y="103" type="curve" smooth="yes"/>
			<point x="604" y="103"/>
			<point x="671" y="154"/>
			<point x="713" y="200" type="curve"/>
			<point x="663" y="260" type="line"/>
			<point x="659" y="261" type="line"/>
			<point x="602" y="203"/>
			<point x="551" y="163"/>
			<point x="506" y="163" type="curve" smooth="yes"/>
			<point x="485" y="163"/>
			<point x="468" y="170"/>
			<point x="456" y="177" type="curve"/>
			<point x="438" y="151" type="line"/>
			<point x="473" y="120"/>
			<point x="508" y="103"/>
		</contour>
	</outline>
</glyph>
<glyph name="uni11EE1" format="2">
	<advance width="772"/>
	<unicode hex="11EE1"/>
	<anchor x="405" y="563" name="top"/>
	<anchor x="409" y="-17" name="bottom"/>
	<outline>
		<contour>
			<point x="83" y="298" type="line"/>
			<point x="166" y="386" type="line" smooth="yes"/>
			<point x="202" y="425"/>
			<point x="234" y="458"/>
			<point x="261" y="458" type="curve" smooth="yes"/>
			<point x="285" y="458"/>
			<point x="308" y="427"/>
			<point x="402" y="298" type="curve"/>
			<point x="411" y="298" type="line"/>
			<point x="490" y="386" type="line" smooth="yes"/>
			<point x="532" y="432"/>
			<point x="558" y="458"/>
			<point x="586" y="458" type="curve" smooth="yes"/>
			<point x="610" y="458"/>
			<point x="633" y="427"/>
			<point x="725" y="298" type="curve"/>
			<point x="757" y="325" type="line"/>
			<point x="649" y="484"/>
			<point x="608" y="542"/>
			<point x="553" y="542" type="curve" smooth="yes"/>
			<point x="513" y="542"/>
			<point x="485" y="520"/>
			<point x="428" y="456" type="curve" smooth="yes"/>
			<point x="358" y="377" type="line"/>
			<point x="410" y="358" type="line"/>
			<point x="324" y="484"/>
			<point x="283" y="542"/>
			<point x="228" y="542" type="curve" smooth="yes"/>
			<point x="186" y="542"/>
			<point x="157" y="516"/>
			<point x="116" y="471" type="curve" smooth="yes"/>
			<point x="15" y="360" type="line"/>
		</contour>
		<contour>
			<point x="219" y="0" type="line"/>
			<point x="277" y="51" type="line" smooth="yes"/>
			<point x="365" y="128"/>
			<point x="409" y="165"/>
			<point x="438" y="165" type="curve" smooth="yes"/>
			<point x="469" y="165"/>
			<point x="506" y="129"/>
			<point x="627" y="0" type="curve"/>
			<point x="654" y="23" type="line"/>
			<point x="518" y="185"/>
			<point x="465" y="248"/>
			<point x="412" y="248" type="curve" smooth="yes"/>
			<point x="361" y="248"/>
			<point x="301" y="195"/>
			<point x="222" y="124" type="curve" smooth="yes"/>
			<point x="157" y="65" type="line"/>
		</contour>
	</outline>
</glyph>
<glyph name="uni11EE2" format="2">
	<advance width="698"/>
	<unicode hex="11EE2"/>
	<anchor x="375" y="563" name="top"/>
	<anchor x="370" y="-17" name="bottom"/>
	<outline>
		<contour>
			<point x="429" y="29" type="curve" smooth="yes"/>
			<point x="480" y="29"/>
			<point x="534" y="82"/>
			<point x="606" y="165" type="curve" smooth="yes"/>
			<point x="682" y="253" type="line"/>
			<point x="612" y="312" type="line"/>
			<point x="549" y="238" type="line" smooth="yes"/>
			<point x="471" y="147"/>
			<point x="430" y="112"/>
			<point x="401" y="112" type="curve" smooth="yes"/>
			<point x="367" y="112"/>
			<point x="338" y="144"/>
			<point x="255" y="236" type="curve"/>
			<point x="227" y="213" type="line"/>
			<point x="329" y="82"/>
			<point x="375" y="29"/>
		</contour>
		<contour>
			<point x="86" y="169" type="line"/>
			<point x="150" y="243" type="line" smooth="yes"/>
			<point x="228" y="334"/>
			<point x="270" y="369"/>
			<point x="299" y="369" type="curve" smooth="yes"/>
			<point x="333" y="369"/>
			<point x="362" y="337"/>
			<point x="445" y="245" type="curve"/>
			<point x="473" y="267" type="line"/>
			<point x="371" y="398"/>
			<point x="323" y="452"/>
			<point x="269" y="452" type="curve" smooth="yes"/>
			<point x="218" y="452"/>
			<point x="164" y="399"/>
			<point x="92" y="316" type="curve" smooth="yes"/>
			<point x="16" y="228" type="line"/>
		</contour>
	</outline>
</glyph>
<glyph name="uni11EE3" format="2">
	<advance width="626"/>
	<unicode hex="11EE3"/>
	<anchor x="481" y="663" name="top"/>
	<anchor x="318" y="-17" name="bottom"/>
	<outline>
		<contour>
			<point x="79" y="-9" type="line"/>
			<point x="116" y="36" type="line" smooth="yes"/>
			<point x="234" y="179"/>
			<point x="276" y="224"/>
			<point x="305" y="224" type="curve" smooth="yes"/>
			<point x="329" y="224"/>
			<point x="357" y="189"/>
			<point x="503" y="0" type="curve"/>
			<point x="541" y="0" type="line"/>
			<point x="518" y="546" type="line"/>
			<point x="483" y="506" type="line"/>
			<point x="616" y="506" type="line"/>
			<point x="611" y="604" type="line"/>
			<point x="509" y="604" type="line" smooth="yes"/>
			<point x="486" y="604"/>
			<point x="483" y="603"/>
			<point x="479" y="598" type="curve" smooth="yes"/>
			<point x="475" y="593"/>
			<point x="474" y="589"/>
			<point x="475" y="572" type="curve" smooth="yes"/>
			<point x="497" y="46" type="line"/>
			<point x="518" y="44" type="line"/>
			<point x="345" y="279"/>
			<point x="318" y="309"/>
			<point x="277" y="309" type="curve" smooth="yes"/>
			<point x="232" y="309"/>
			<point x="183" y="250"/>
			<point x="61" y="102" type="curve" smooth="yes"/>
			<point x="15" y="46" type="line"/>
		</contour>
	</outline>
</glyph>
<glyph name="uni11EE4" format="2">
	<advance width="772"/>
	<unicode hex="11EE4"/>
	<anchor x="395" y="563" name="top"/>
	<anchor x="402" y="-17" name="bottom"/>
	<outline>
		<contour>
			<point x="83" y="298" type="line"/>
			<point x="166" y="386" type="line" smooth="yes"/>
			<point x="202" y="425"/>
			<point x="234" y="458"/>
			<point x="261" y="458" type="curve" smooth="yes"/>
			<point x="285" y="458"/>
			<point x="308" y="427"/>
			<point x="402" y="298" type="curve"/>
			<point x="411" y="298" type="line"/>
			<point x="490" y="386" type="line" smooth="yes"/>
			<point x="532" y="432"/>
			<point x="558" y="458"/>
			<point x="586" y="458" type="curve" smooth="yes"/>
			<point x="610" y="458"/>
			<point x="633" y="427"/>
			<point x="725" y="298" type="curve"/>
			<point x="757" y="325" type="line"/>
			<point x="649" y="484"/>
			<point x="608" y="542"/>
			<point x="553" y="542" type="curve" smooth="yes"/>
			<point x="513" y="542"/>
			<point x="485" y="520"/>
			<point x="428" y="456" type="curve" smooth="yes"/>
			<point x="356" y="375" type="line"/>
			<point x="410" y="358" type="line"/>
			<point x="324" y="484"/>
			<point x="283" y="542"/>
			<point x="228" y="542" type="curve" smooth="yes"/>
			<point x="186" y="542"/>
			<point x="157" y="516"/>
			<point x="116" y="471" type="curve" smooth="yes"/>
			<point x="15" y="360" type="line"/>
		</contour>
		<contour>
			<point x="395" y="0" type="curve" smooth="yes"/>
			<point x="436" y="0"/>
			<point x="470" y="24"/>
			<point x="536" y="75" type="curve" smooth="yes"/>
			<point x="654" y="167" type="line"/>
			<point x="592" y="232" type="line"/>
			<point x="534" y="186" type="line" smooth="yes"/>
			<point x="442" y="113"/>
			<point x="402" y="82"/>
			<point x="373" y="82" type="curve" smooth="yes"/>
			<point x="343" y="82"/>
			<point x="323" y="97"/>
			<point x="192" y="224" type="curve"/>
			<point x="167" y="200" type="line"/>
			<point x="293" y="57"/>
			<point x="345" y="0"/>
		</contour>
	</outline>
</glyph>
<glyph name="uni11EE5" format="2">
	<advance width="772"/>
	<unicode hex="11EE5"/>
	<anchor x="395" y="563" name="top"/>
	<anchor x="399" y="-17" name="bottom"/>
	<outline>
		<contour>
			<point x="83" y="298" type="line"/>
			<point x="166" y="386" type="line" smooth="yes"/>
			<point x="202" y="425"/>
			<point x="234" y="458"/>
			<point x="261" y="458" type="curve" smooth="yes"/>
			<point x="285" y="458"/>
			<point x="308" y="427"/>
			<point x="402" y="298" type="curve"/>
			<point x="411" y="298" type="line"/>
			<point x="490" y="386" type="line" smooth="yes"/>
			<point x="532" y="432"/>
			<point x="558" y="458"/>
			<point x="586" y="458" type="curve" smooth="yes"/>
			<point x="610" y="458"/>
			<point x="633" y="427"/>
			<point x="725" y="298" type="curve"/>
			<point x="757" y="325" type="line"/>
			<point x="649" y="484"/>
			<point x="608" y="542"/>
			<point x="553" y="542" type="curve" smooth="yes"/>
			<point x="513" y="542"/>
			<point x="485" y="520"/>
			<point x="428" y="456" type="curve" smooth="yes"/>
			<point x="358" y="377" type="line"/>
			<point x="410" y="358" type="line"/>
			<point x="324" y="484"/>
			<point x="283" y="542"/>
			<point x="228" y="542" type="curve" smooth="yes"/>
			<point x="186" y="542"/>
			<point x="157" y="516"/>
			<point x="116" y="471" type="curve" smooth="yes"/>
			<point x="15" y="360" type="line"/>
		</contour>
		<contour>
			<point x="577" y="-34" type="line"/>
			<point x="492" y="133" type="line" smooth="yes"/>
			<point x="449" y="218"/>
			<point x="431" y="227"/>
			<point x="411" y="227" type="curve" smooth="yes"/>
			<point x="390" y="227"/>
			<point x="372" y="216"/>
			<point x="331" y="133" type="curve" smooth="yes"/>
			<point x="260" y="-9" type="line"/>
			<point x="211" y="67" type="line"/>
			<point x="590" y="67" type="line"/>
		</contour>
		<contour>
			<point x="478" y="75" type="line"/>
			<point x="491" y="113" type="line"/>
			<point x="329" y="113" type="line"/>
			<point x="351" y="78" type="line"/>
			<point x="379" y="135" type="line" smooth="yes"/>
			<point x="393" y="164"/>
			<point x="402" y="174"/>
			<point x="414" y="174" type="curve" smooth="yes"/>
			<point x="425" y="174"/>
			<point x="433" y="164"/>
			<point x="448" y="135" type="curve" smooth="yes"/>
		</contour>
	</outline>
</glyph>
<glyph name="uni11EE6" format="2">
	<advance width="738"/>
	<unicode hex="11EE6"/>
	<anchor x="405" y="563" name="top"/>
	<anchor x="399" y="-17" name="bottom"/>
	<outline>
		<contour>
			<point x="83" y="-10" type="line"/>
			<point x="226" y="159" type="line" smooth="yes"/>
			<point x="365" y="323"/>
			<point x="418" y="368"/>
			<point x="447" y="368" type="curve" smooth="yes"/>
			<point x="464" y="368"/>
			<point x="480" y="358"/>
			<point x="523" y="308" type="curve" smooth="yes"/>
			<point x="579" y="243" type="line"/>
			<point x="563" y="284" type="line"/>
			<point x="537" y="246"/>
			<point x="512" y="177"/>
			<point x="512" y="121" type="curve" smooth="yes"/>
			<point x="512" y="39"/>
			<point x="555" y="-8"/>
			<point x="625" y="-8" type="curve" smooth="yes"/>
			<point x="676" y="-8"/>
			<point x="713" y="19"/>
			<point x="713" y="72" type="curve" smooth="yes"/>
			<point x="713" y="118"/>
			<point x="685" y="183"/>
			<point x="615" y="267" type="curve" smooth="yes"/>
			<point x="541" y="356" type="line" smooth="yes"/>
			<point x="481" y="429"/>
			<point x="449" y="452"/>
			<point x="413" y="452" type="curve" smooth="yes"/>
			<point x="362" y="452"/>
			<point x="296" y="391"/>
			<point x="166" y="232" type="curve" smooth="yes"/>
			<point x="15" y="47" type="line"/>
		</contour>
		<contour>
			<point x="611" y="38" type="curve" smooth="yes"/>
			<point x="579" y="38"/>
			<point x="554" y="66"/>
			<point x="554" y="110" type="curve" smooth="yes"/>
			<point x="554" y="162"/>
			<point x="575" y="215"/>
			<point x="595" y="256" type="curve"/>
			<point x="584" y="236" type="line"/>
			<point x="627" y="186"/>
			<point x="650" y="129"/>
			<point x="650" y="89" type="curve" smooth="yes"/>
			<point x="650" y="59"/>
			<point x="637" y="38"/>
		</contour>
	</outline>
</glyph>
<glyph name="uni11EE7" format="2">
	<advance width="786"/>
	<unicode hex="11EE7"/>
	<anchor x="481" y="663" name="top"/>
	<anchor x="389" y="-17" name="bottom"/>
	<outline>
		<contour>
			<point x="215" y="0" type="curve" smooth="yes"/>
			<point x="514" y="0" type="line" smooth="yes"/>
			<point x="574" y="0"/>
			<point x="597" y="23"/>
			<point x="597" y="59" type="curve" smooth="yes"/>
			<point x="597" y="92"/>
			<point x="587" y="121"/>
			<point x="571" y="159" type="curve" smooth="yes"/>
			<point x="505" y="319" type="line" smooth="yes"/>
			<point x="489" y="359"/>
			<point x="474" y="397"/>
			<point x="474" y="430" type="curve" smooth="yes"/>
			<point x="474" y="474"/>
			<point x="513" y="505"/>
			<point x="571" y="505" type="curve" smooth="yes"/>
			<point x="620" y="505"/>
			<point x="645" y="474"/>
			<point x="720" y="321" type="curve" smooth="yes"/>
			<point x="743" y="274" type="line"/>
			<point x="776" y="288" type="line"/>
			<point x="753" y="339" type="line" smooth="yes"/>
			<point x="656" y="554"/>
			<point x="619" y="609"/>
			<point x="537" y="609" type="curve" smooth="yes"/>
			<point x="478" y="609"/>
			<point x="405" y="564"/>
			<point x="405" y="495" type="curve" smooth="yes"/>
			<point x="405" y="451"/>
			<point x="421" y="411"/>
			<point x="460" y="316" type="curve" smooth="yes"/>
			<point x="510" y="195" type="line" smooth="yes"/>
			<point x="527" y="155"/>
			<point x="537" y="128"/>
			<point x="537" y="113" type="curve" smooth="yes"/>
			<point x="537" y="97"/>
			<point x="524" y="91"/>
			<point x="504" y="91" type="curve" smooth="yes"/>
			<point x="196" y="91" type="line" smooth="yes"/>
			<point x="168" y="91"/>
			<point x="165" y="95"/>
			<point x="134" y="165" type="curve" smooth="yes"/>
			<point x="121" y="194" type="line" smooth="yes"/>
			<point x="107" y="225"/>
			<point x="92" y="265"/>
			<point x="92" y="304" type="curve" smooth="yes"/>
			<point x="92" y="338"/>
			<point x="124" y="372"/>
			<point x="175" y="372" type="curve" smooth="yes"/>
			<point x="219" y="372"/>
			<point x="239" y="347"/>
			<point x="281" y="261" type="curve" smooth="yes"/>
			<point x="304" y="214" type="line"/>
			<point x="335" y="227" type="line"/>
			<point x="312" y="278" type="line" smooth="yes"/>
			<point x="245" y="426"/>
			<point x="217" y="474"/>
			<point x="152" y="474" type="curve" smooth="yes"/>
			<point x="87" y="474"/>
			<point x="28" y="420"/>
			<point x="28" y="362" type="curve" smooth="yes"/>
			<point x="28" y="318"/>
			<point x="43" y="278"/>
			<point x="83" y="183" type="curve" smooth="yes"/>
			<point x="128" y="77" type="line" smooth="yes"/>
			<point x="155" y="13"/>
			<point x="163" y="0"/>
		</contour>
	</outline>
</glyph>
<glyph name="uni11EE8" format="2">
	<advance width="811"/>
	<unicode hex="11EE8"/>
	<anchor x="425" y="563" name="top"/>
	<anchor x="429" y="-17" name="bottom"/>
	<outline>
		<contour>
			<point x="83" y="-10" type="line"/>
			<point x="226" y="159" type="line" smooth="yes"/>
			<point x="365" y="323"/>
			<point x="418" y="368"/>
			<point x="447" y="368" type="curve" smooth="yes"/>
			<point x="465" y="368"/>
			<point x="482" y="358"/>
			<point x="530" y="300" type="curve" smooth="yes"/>
			<point x="574" y="246"/>
			<point x="644" y="152"/>
			<point x="765" y="-13" type="curve"/>
			<point x="796" y="10" type="line"/>
			<point x="665" y="200"/>
			<point x="587" y="310"/>
			<point x="534" y="373" type="curve" smooth="yes"/>
			<point x="480" y="437"/>
			<point x="450" y="452"/>
			<point x="417" y="452" type="curve" smooth="yes"/>
			<point x="366" y="452"/>
			<point x="296" y="391"/>
			<point x="166" y="232" type="curve" smooth="yes"/>
			<point x="15" y="47" type="line"/>
		</contour>
	</outline>
</glyph>
<glyph name="uni11EE9" format="2">
	<advance width="644"/>
	<unicode hex="11EE9"/>
	<anchor x="334" y="563" name="top"/>
	<anchor x="338" y="-17" name="bottom"/>
	<outline>
		<contour>
			<point x="148" y="-8" type="curve" smooth="yes"/>
			<point x="234" y="-8"/>
			<point x="270" y="57"/>
			<point x="270" y="127" type="curve" smooth="yes"/>
			<point x="270" y="175"/>
			<point x="248" y="227"/>
			<point x="215" y="278" type="curve"/>
			<point x="209" y="248" type="line"/>
			<point x="261" y="302" type="line" smooth="yes"/>
			<point x="311" y="353"/>
			<point x="332" y="368"/>
			<point x="356" y="368" type="curve" smooth="yes"/>
			<point x="378" y="368"/>
			<point x="394" y="355"/>
			<point x="428" y="315" type="curve" smooth="yes"/>
			<point x="490" y="243" type="line"/>
			<point x="474" y="284" type="line"/>
			<point x="448" y="246"/>
			<point x="423" y="177"/>
			<point x="423" y="121" type="curve" smooth="yes"/>
			<point x="423" y="39"/>
			<point x="460" y="-8"/>
			<point x="530" y="-8" type="curve" smooth="yes"/>
			<point x="581" y="-8"/>
			<point x="619" y="21"/>
			<point x="619" y="77" type="curve" smooth="yes"/>
			<point x="619" y="123"/>
			<point x="592" y="187"/>
			<point x="526" y="267" type="curve" smooth="yes"/>
			<point x="452" y="356" type="line" smooth="yes"/>
			<point x="400" y="419"/>
			<point x="365" y="452"/>
			<point x="324" y="452" type="curve" smooth="yes"/>
			<point x="292" y="452"/>
			<point x="267" y="430"/>
			<point x="226" y="389" type="curve" smooth="yes"/>
			<point x="102" y="263" type="line" smooth="yes"/>
			<point x="51" y="212"/>
			<point x="31" y="159"/>
			<point x="31" y="114" type="curve" smooth="yes"/>
			<point x="31" y="44"/>
			<point x="83" y="-8"/>
		</contour>
		<contour>
			<point x="137" y="33" type="curve" smooth="yes"/>
			<point x="113" y="33"/>
			<point x="90" y="46"/>
			<point x="90" y="77" type="curve" smooth="yes"/>
			<point x="90" y="110"/>
			<point x="118" y="163"/>
			<point x="203" y="241" type="curve"/>
			<point x="188" y="265" type="line"/>
			<point x="203" y="233"/>
			<point x="211" y="196"/>
			<point x="211" y="161" type="curve" smooth="yes"/>
			<point x="211" y="98"/>
			<point x="195" y="33"/>
		</contour>
		<contour>
			<point x="516" y="38" type="curve" smooth="yes"/>
			<point x="484" y="38"/>
			<point x="465" y="66"/>
			<point x="465" y="110" type="curve" smooth="yes"/>
			<point x="465" y="162"/>
			<point x="486" y="215"/>
			<point x="506" y="256" type="curve"/>
			<point x="494" y="237" type="line"/>
			<point x="537" y="193"/>
			<point x="557" y="138"/>
			<point x="557" y="97" type="curve" smooth="yes"/>
			<point x="557" y="63"/>
			<point x="543" y="38"/>
		</contour>
	</outline>
</glyph>
<glyph name="uni11EEA" format="2">
	<advance width="760"/>
	<unicode hex="11EEA"/>
	<anchor x="394" y="563" name="top"/>
	<anchor x="400" y="-17" name="bottom"/>
	<outline>
		<contour>
			<point x="400" y="-7" type="curve" smooth="yes"/>
			<point x="453" y="-7"/>
			<point x="506" y="33"/>
			<point x="506" y="114" type="curve" smooth="yes"/>
			<point x="506" y="172"/>
			<point x="478" y="257"/>
			<point x="409" y="358" type="curve" smooth="yes"/>
			<point x="322" y="485"/>
			<point x="283" y="542"/>
			<point x="228" y="542" type="curve" smooth="yes"/>
			<point x="186" y="542"/>
			<point x="157" y="516"/>
			<point x="116" y="471" type="curve" smooth="yes"/>
			<point x="15" y="360" type="line"/>
			<point x="83" y="298" type="line"/>
			<point x="166" y="386" type="line" smooth="yes"/>
			<point x="202" y="425"/>
			<point x="234" y="458"/>
			<point x="261" y="458" type="curve" smooth="yes"/>
			<point x="283" y="458"/>
			<point x="305" y="433"/>
			<point x="380" y="331" type="curve" smooth="yes"/>
			<point x="415" y="283"/>
			<point x="452" y="224"/>
			<point x="452" y="162" type="curve" smooth="yes"/>
			<point x="452" y="112"/>
			<point x="423" y="83"/>
			<point x="391" y="83" type="curve" smooth="yes"/>
			<point x="364" y="83"/>
			<point x="341" y="101"/>
			<point x="341" y="140" type="curve" smooth="yes"/>
			<point x="341" y="196"/>
			<point x="391" y="296"/>
			<point x="445" y="366" type="curve" smooth="yes"/>
			<point x="487" y="419"/>
			<point x="531" y="458"/>
			<point x="559" y="458" type="curve" smooth="yes"/>
			<point x="587" y="458"/>
			<point x="621" y="427"/>
			<point x="713" y="298" type="curve"/>
			<point x="745" y="325" type="line"/>
			<point x="637" y="484"/>
			<point x="590" y="542"/>
			<point x="531" y="542" type="curve" smooth="yes"/>
			<point x="490" y="542"/>
			<point x="451" y="502"/>
			<point x="411" y="446" type="curve" smooth="yes"/>
			<point x="341" y="348"/>
			<point x="296" y="208"/>
			<point x="296" y="128" type="curve" smooth="yes"/>
			<point x="296" y="40"/>
			<point x="346" y="-7"/>
		</contour>
	</outline>
</glyph>
<glyph name="uni11EEB" format="2">
	<advance width="991"/>
	<unicode hex="11EEB"/>
	<anchor x="504" y="563" name="top"/>
	<anchor x="519" y="-17" name="bottom"/>
	<outline>
		<contour>
			<point x="379" y="-6" type="curve" smooth="yes"/>
			<point x="423" y="-6"/>
			<point x="472" y="34"/>
			<point x="472" y="115" type="curve" smooth="yes"/>
			<point x="472" y="173"/>
			<point x="451" y="252"/>
			<point x="387" y="358" type="curve" smooth="yes"/>
			<point x="311" y="485"/>
			<point x="276" y="542"/>
			<point x="221" y="542" type="curve" smooth="yes"/>
			<point x="179" y="542"/>
			<point x="152" y="516"/>
			<point x="111" y="471" type="curve" smooth="yes"/>
			<point x="15" y="365" type="line"/>
			<point x="75" y="298" type="line"/>
			<point x="161" y="390" type="line" smooth="yes"/>
			<point x="200" y="432"/>
			<point x="225" y="458"/>
			<point x="251" y="458" type="curve" smooth="yes"/>
			<point x="273" y="458"/>
			<point x="303" y="428"/>
			<point x="379" y="298" type="curve" smooth="yes"/>
			<point x="404" y="255"/>
			<point x="420" y="207"/>
			<point x="420" y="159" type="curve" smooth="yes"/>
			<point x="420" y="112"/>
			<point x="399" y="84"/>
			<point x="369" y="84" type="curve" smooth="yes"/>
			<point x="342" y="84"/>
			<point x="326" y="106"/>
			<point x="326" y="142" type="curve" smooth="yes"/>
			<point x="326" y="227"/>
			<point x="385" y="326"/>
			<point x="444" y="391" type="curve" smooth="yes"/>
			<point x="479" y="429"/>
			<point x="512" y="458"/>
			<point x="532" y="458" type="curve" smooth="yes"/>
			<point x="554" y="458"/>
			<point x="583" y="428"/>
			<point x="659" y="298" type="curve" smooth="yes"/>
			<point x="684" y="255"/>
			<point x="700" y="204"/>
			<point x="700" y="159" type="curve" smooth="yes"/>
			<point x="700" y="112"/>
			<point x="679" y="84"/>
			<point x="649" y="84" type="curve" smooth="yes"/>
			<point x="622" y="84"/>
			<point x="606" y="106"/>
			<point x="606" y="142" type="curve" smooth="yes"/>
			<point x="606" y="227"/>
			<point x="665" y="326"/>
			<point x="724" y="391" type="curve" smooth="yes"/>
			<point x="759" y="429"/>
			<point x="794" y="458"/>
			<point x="818" y="458" type="curve" smooth="yes"/>
			<point x="845" y="458"/>
			<point x="864" y="428"/>
			<point x="942" y="298" type="curve"/>
			<point x="976" y="321" type="line"/>
			<point x="878" y="485"/>
			<point x="843" y="542"/>
			<point x="791" y="542" type="curve" smooth="yes"/>
			<point x="756" y="542"/>
			<point x="727" y="518"/>
			<point x="692" y="473" type="curve" smooth="yes"/>
			<point x="611" y="371"/>
			<point x="563" y="213"/>
			<point x="563" y="137" type="curve" smooth="yes"/>
			<point x="563" y="41"/>
			<point x="600" y="-6"/>
			<point x="659" y="-6" type="curve" smooth="yes"/>
			<point x="703" y="-6"/>
			<point x="752" y="34"/>
			<point x="752" y="115" type="curve" smooth="yes"/>
			<point x="752" y="173"/>
			<point x="729" y="250"/>
			<point x="667" y="358" type="curve" smooth="yes"/>
			<point x="594" y="485"/>
			<point x="560" y="542"/>
			<point x="505" y="542" type="curve" smooth="yes"/>
			<point x="473" y="542"/>
			<point x="447" y="518"/>
			<point x="412" y="473" type="curve" smooth="yes"/>
			<point x="331" y="371"/>
			<point x="283" y="213"/>
			<point x="283" y="137" type="curve" smooth="yes"/>
			<point x="283" y="41"/>
			<point x="320" y="-6"/>
		</contour>
	</outline>
</glyph>
<glyph name="uni11EEC" format="2">
	<advance width="719"/>
	<unicode hex="11EEC"/>
	<anchor x="425" y="563" name="top"/>
	<anchor x="410" y="-17" name="bottom"/>
	<outline>
		<contour>
			<point x="73" y="198" type="line"/>
			<point x="150" y="276" type="line" smooth="yes"/>
			<point x="213" y="340"/>
			<point x="240" y="358"/>
			<point x="270" y="358" type="curve" smooth="yes"/>
			<point x="303" y="358"/>
			<point x="348" y="327"/>
			<point x="455" y="248" type="curve"/>
			<point x="464" y="248" type="line"/>
			<point x="508" y="272" type="line" smooth="yes"/>
			<point x="576" y="309"/>
			<point x="621" y="328"/>
			<point x="676" y="349" type="curve"/>
			<point x="676" y="354" type="line"/>
			<point x="600" y="518"/>
			<point x="571" y="557"/>
			<point x="533" y="557" type="curve" smooth="yes"/>
			<point x="505" y="557"/>
			<point x="480" y="538"/>
			<point x="431" y="485" type="curve"/>
			<point x="468" y="455" type="line"/>
			<point x="412" y="535"/>
			<point x="384" y="572"/>
			<point x="344" y="572" type="curve" smooth="yes"/>
			<point x="306" y="572"/>
			<point x="267" y="543"/>
			<point x="194" y="422" type="curve"/>
			<point x="288" y="396" type="line"/>
			<point x="320" y="456"/>
			<point x="350" y="491"/>
			<point x="373" y="491" type="curve" smooth="yes"/>
			<point x="390" y="491"/>
			<point x="404" y="482"/>
			<point x="456" y="416" type="curve"/>
			<point x="459" y="416" type="line"/>
			<point x="502" y="461"/>
			<point x="527" y="477"/>
			<point x="547" y="477" type="curve" smooth="yes"/>
			<point x="568" y="477"/>
			<point x="584" y="453"/>
			<point x="612" y="396" type="curve"/>
			<point x="629" y="413" type="line"/>
			<point x="575" y="394"/>
			<point x="531" y="375"/>
			<point x="465" y="339" type="curve" smooth="yes"/>
			<point x="423" y="316" type="line"/>
			<point x="471" y="286" type="line"/>
			<point x="345" y="379"/>
			<point x="268" y="427"/>
			<point x="217" y="427" type="curve" smooth="yes"/>
			<point x="175" y="427"/>
			<point x="152" y="413"/>
			<point x="89" y="347" type="curve" smooth="yes"/>
			<point x="5" y="260" type="line"/>
		</contour>
		<contour>
			<point x="548" y="111" type="curve" smooth="yes"/>
			<point x="597" y="111"/>
			<point x="655" y="135"/>
			<point x="712" y="179" type="curve"/>
			<point x="678" y="251" type="line"/>
			<point x="674" y="253" type="line"/>
			<point x="613" y="207"/>
			<point x="552" y="177"/>
			<point x="503" y="177" type="curve" smooth="yes"/>
			<point x="481" y="177"/>
			<point x="461" y="183"/>
			<point x="444" y="191" type="curve"/>
			<point x="428" y="168" type="line"/>
			<point x="463" y="132"/>
			<point x="505" y="111"/>
		</contour>
	</outline>
</glyph>
<glyph name="uni11EED" format="2">
	<advance width="529"/>
	<unicode hex="11EED"/>
	<anchor x="275" y="563" name="top"/>
	<anchor x="286" y="-17" name="bottom"/>
	<outline>
		<contour>
			<point x="116" y="57" type="curve"/>
			<point x="157" y="57" type="line"/>
			<point x="157" y="112"/>
			<point x="153" y="241"/>
			<point x="144" y="378" type="curve"/>
			<point x="200" y="333"/>
			<point x="256" y="321"/>
			<point x="297" y="321" type="curve" smooth="yes"/>
			<point x="346" y="321"/>
			<point x="408" y="339"/>
			<point x="447" y="368" type="curve"/>
			<point x="441" y="466" type="line"/>
			<point x="437" y="468" type="line"/>
			<point x="374" y="428"/>
			<point x="325" y="410"/>
			<point x="269" y="410" type="curve" smooth="yes"/>
			<point x="239" y="410"/>
			<point x="174" y="416"/>
			<point x="113" y="460" type="curve"/>
			<point x="100" y="453" type="line"/>
			<point x="103" y="425"/>
			<point x="105" y="400"/>
			<point x="107" y="362" type="curve" smooth="yes"/>
			<point x="113" y="255"/>
			<point x="116" y="134"/>
		</contour>
		<contour>
			<point x="325" y="61" type="curve" smooth="yes"/>
			<point x="370" y="61"/>
			<point x="418" y="76"/>
			<point x="456" y="99" type="curve"/>
			<point x="449" y="189" type="line"/>
			<point x="445" y="191" type="line"/>
			<point x="385" y="154"/>
			<point x="344" y="140"/>
			<point x="295" y="140" type="curve" smooth="yes"/>
			<point x="260" y="140"/>
			<point x="224" y="147"/>
			<point x="192" y="167" type="curve"/>
			<point x="173" y="139" type="line"/>
			<point x="208" y="88"/>
			<point x="263" y="61"/>
		</contour>
	</outline>
</glyph>
<glyph name="uni11EEE" format="2">
	<advance width="564"/>
	<unicode hex="11EEE"/>
	<anchor x="270" y="663" name="top"/>
	<anchor x="249" y="-17" name="bottom"/>
	<outline>
		<contour>
			<point x="30" y="0" type="line"/>
			<point x="292" y="0" type="line" smooth="yes"/>
			<point x="352" y="0"/>
			<point x="375" y="23"/>
			<point x="375" y="59" type="curve" smooth="yes"/>
			<point x="375" y="92"/>
			<point x="364" y="122"/>
			<point x="349" y="159" type="curve" smooth="yes"/>
			<point x="283" y="318" type="line" smooth="yes"/>
			<point x="266" y="358"/>
			<point x="252" y="396"/>
			<point x="252" y="429" type="curve" smooth="yes"/>
			<point x="252" y="473"/>
			<point x="291" y="504"/>
			<point x="346" y="504" type="curve" smooth="yes"/>
			<point x="395" y="504"/>
			<point x="419" y="473"/>
			<point x="495" y="320" type="curve" smooth="yes"/>
			<point x="519" y="272" type="line"/>
			<point x="554" y="287" type="line"/>
			<point x="531" y="338" type="line" smooth="yes"/>
			<point x="434" y="553"/>
			<point x="397" y="608"/>
			<point x="315" y="608" type="curve" smooth="yes"/>
			<point x="256" y="608"/>
			<point x="183" y="563"/>
			<point x="183" y="494" type="curve" smooth="yes"/>
			<point x="183" y="450"/>
			<point x="199" y="410"/>
			<point x="238" y="315" type="curve" smooth="yes"/>
			<point x="288" y="195" type="line" smooth="yes"/>
			<point x="304" y="156"/>
			<point x="315" y="128"/>
			<point x="315" y="113" type="curve" smooth="yes"/>
			<point x="315" y="97"/>
			<point x="307" y="91"/>
			<point x="282" y="91" type="curve" smooth="yes"/>
			<point x="30" y="91" type="line"/>
		</contour>
	</outline>
</glyph>
<glyph name="uni11EEF" format="2">
	<advance width="865"/>
	<unicode hex="11EEF"/>
	<anchor x="435" y="-17" name="bot"/>
	<anchor x="575" y="663" name="top"/>
	<outline>
		<contour>
			<point x="288" y="0" type="curve" smooth="yes"/>
			<point x="573" y="0" type="line" smooth="yes"/>
			<point x="633" y="0"/>
			<point x="653" y="24"/>
			<point x="653" y="60" type="curve" smooth="yes"/>
			<point x="653" y="83"/>
			<point x="645" y="111"/>
			<point x="637" y="139" type="curve" smooth="yes"/>
			<point x="589" y="317" type="line" smooth="yes"/>
			<point x="578" y="359"/>
			<point x="569" y="395"/>
			<point x="569" y="428" type="curve" smooth="yes"/>
			<point x="569" y="472"/>
			<point x="605" y="503"/>
			<point x="663" y="503" type="curve" smooth="yes"/>
			<point x="712" y="503"/>
			<point x="733" y="471"/>
			<point x="801" y="319" type="curve" smooth="yes"/>
			<point x="822" y="272" type="line"/>
			<point x="855" y="286" type="line"/>
			<point x="834" y="337" type="line" smooth="yes"/>
			<point x="745" y="552"/>
			<point x="718" y="607"/>
			<point x="636" y="607" type="curve" smooth="yes"/>
			<point x="577" y="607"/>
			<point x="506" y="565"/>
			<point x="506" y="496" type="curve" smooth="yes"/>
			<point x="506" y="452"/>
			<point x="522" y="413"/>
			<point x="547" y="314" type="curve" smooth="yes"/>
			<point x="585" y="164" type="line" smooth="yes"/>
			<point x="590" y="146"/>
			<point x="594" y="129"/>
			<point x="594" y="113" type="curve" smooth="yes"/>
			<point x="594" y="97"/>
			<point x="583" y="91"/>
			<point x="558" y="91" type="curve" smooth="yes"/>
			<point x="303" y="91" type="line" smooth="yes"/>
			<point x="278" y="91"/>
			<point x="267" y="97"/>
			<point x="267" y="113" type="curve" smooth="yes"/>
			<point x="267" y="129"/>
			<point x="271" y="146"/>
			<point x="276" y="164" type="curve" smooth="yes"/>
			<point x="316" y="314" type="line" smooth="yes"/>
			<point x="342" y="413"/>
			<point x="352" y="454"/>
			<point x="352" y="498" type="curve" smooth="yes"/>
			<point x="352" y="559"/>
			<point x="311" y="607"/>
			<point x="235" y="607" type="curve" smooth="yes"/>
			<point x="145" y="607"/>
			<point x="120" y="551"/>
			<point x="31" y="336" type="curve" smooth="yes"/>
			<point x="10" y="285" type="line"/>
			<point x="41" y="272" type="line"/>
			<point x="62" y="319" type="line" smooth="yes"/>
			<point x="130" y="471"/>
			<point x="152" y="503"/>
			<point x="206" y="503" type="curve" smooth="yes"/>
			<point x="259" y="503"/>
			<point x="296" y="472"/>
			<point x="296" y="428" type="curve" smooth="yes"/>
			<point x="296" y="395"/>
			<point x="286" y="359"/>
			<point x="274" y="317" type="curve" smooth="yes"/>
			<point x="224" y="139" type="line" smooth="yes"/>
			<point x="216" y="109"/>
			<point x="209" y="82"/>
			<point x="209" y="59" type="curve" smooth="yes"/>
			<point x="209" y="23"/>
			<point x="228" y="0"/>
		</contour>
	</outline>
</glyph>
<glyph name="uni11EF0" format="2">
	<advance width="434"/>
	<unicode hex="11EF0"/>
	<anchor x="195" y="663" name="top"/>
	<anchor x="219" y="-17" name="bottom"/>
	<outline>
		<contour>
			<point x="67" y="0" type="curve"/>
			<point x="134" y="0" type="line"/>
			<point x="121" y="57"/>
			<point x="111" y="113"/>
			<point x="111" y="152" type="curve" smooth="yes"/>
			<point x="111" y="215"/>
			<point x="134" y="249"/>
			<point x="186" y="249" type="curve" smooth="yes"/>
			<point x="208" y="249"/>
			<point x="231" y="242"/>
			<point x="248" y="230" type="curve"/>
			<point x="270" y="252" type="line"/>
			<point x="259" y="267"/>
			<point x="246" y="285"/>
			<point x="226" y="313" type="curve" smooth="yes"/>
			<point x="191" y="363"/>
			<point x="173" y="400"/>
			<point x="173" y="430" type="curve" smooth="yes"/>
			<point x="173" y="460"/>
			<point x="202" y="488"/>
			<point x="244" y="488" type="curve" smooth="yes"/>
			<point x="279" y="488"/>
			<point x="306" y="457"/>
			<point x="359" y="362" type="curve" smooth="yes"/>
			<point x="394" y="299" type="line"/>
			<point x="424" y="315" type="line"/>
			<point x="390" y="379" type="line" smooth="yes"/>
			<point x="306" y="536"/>
			<point x="274" y="586"/>
			<point x="211" y="586" type="curve" smooth="yes"/>
			<point x="157" y="586"/>
			<point x="102" y="537"/>
			<point x="102" y="479" type="curve" smooth="yes"/>
			<point x="102" y="435"/>
			<point x="133" y="391"/>
			<point x="187" y="312" type="curve"/>
			<point x="193" y="335" type="line"/>
			<point x="77" y="342"/>
			<point x="40" y="272"/>
			<point x="40" y="169" type="curve" smooth="yes"/>
			<point x="40" y="125"/>
			<point x="51" y="62"/>
		</contour>
	</outline>
</glyph>
<glyph name="uni11EF1" format="2">
	<advance width="506"/>
	<unicode hex="11EF1"/>
	<anchor x="273" y="663" name="top"/>
	<anchor x="289" y="-17" name="bottom"/>
	<outline>
		<contour>
			<point x="30" y="0" type="line"/>
			<point x="192" y="0" type="line" smooth="yes"/>
			<point x="235" y="0"/>
			<point x="254" y="11"/>
			<point x="254" y="40" type="curve" smooth="yes"/>
			<point x="254" y="60"/>
			<point x="245" y="79"/>
			<point x="234" y="101" type="curve" smooth="yes"/>
			<point x="207" y="157" type="line" smooth="yes"/>
			<point x="200" y="171"/>
			<point x="192" y="189"/>
			<point x="192" y="205" type="curve" smooth="yes"/>
			<point x="192" y="230"/>
			<point x="212" y="250"/>
			<point x="255" y="250" type="curve" smooth="yes"/>
			<point x="282" y="250"/>
			<point x="301" y="243"/>
			<point x="320" y="230" type="curve"/>
			<point x="342" y="252" type="line"/>
			<point x="331" y="267"/>
			<point x="318" y="285"/>
			<point x="298" y="313" type="curve" smooth="yes"/>
			<point x="263" y="363"/>
			<point x="245" y="400"/>
			<point x="245" y="430" type="curve" smooth="yes"/>
			<point x="245" y="460"/>
			<point x="274" y="488"/>
			<point x="316" y="488" type="curve" smooth="yes"/>
			<point x="351" y="488"/>
			<point x="378" y="457"/>
			<point x="431" y="362" type="curve" smooth="yes"/>
			<point x="466" y="299" type="line"/>
			<point x="496" y="315" type="line"/>
			<point x="462" y="379" type="line" smooth="yes"/>
			<point x="378" y="536"/>
			<point x="346" y="586"/>
			<point x="283" y="586" type="curve" smooth="yes"/>
			<point x="229" y="586"/>
			<point x="174" y="537"/>
			<point x="174" y="479" type="curve" smooth="yes"/>
			<point x="174" y="435"/>
			<point x="205" y="391"/>
			<point x="259" y="312" type="curve"/>
			<point x="265" y="335" type="line"/>
			<point x="179" y="340"/>
			<point x="139" y="301"/>
			<point x="139" y="246" type="curve" smooth="yes"/>
			<point x="139" y="214"/>
			<point x="156" y="180"/>
			<point x="169" y="154" type="curve" smooth="yes"/>
			<point x="184" y="124" type="line" smooth="yes"/>
			<point x="192" y="108"/>
			<point x="198" y="95"/>
			<point x="198" y="89" type="curve" smooth="yes"/>
			<point x="198" y="81"/>
			<point x="191" y="80"/>
			<point x="176" y="80" type="curve" smooth="yes"/>
			<point x="30" y="80" type="line"/>
		</contour>
	</outline>
</glyph>
<glyph name="uni11EF2" format="2">
	<advance width="497"/>
	<unicode hex="11EF2"/>
	<anchor x="265" y="563" name="top"/>
	<anchor x="279" y="-17" name="bottom"/>
	<outline>
		<contour>
			<point x="116" y="57" type="curve"/>
			<point x="157" y="57" type="line"/>
			<point x="157" y="112"/>
			<point x="153" y="241"/>
			<point x="144" y="378" type="curve"/>
			<point x="200" y="333"/>
			<point x="256" y="321"/>
			<point x="297" y="321" type="curve" smooth="yes"/>
			<point x="346" y="321"/>
			<point x="408" y="339"/>
			<point x="447" y="368" type="curve"/>
			<point x="441" y="466" type="line"/>
			<point x="437" y="468" type="line"/>
			<point x="374" y="428"/>
			<point x="325" y="410"/>
			<point x="269" y="410" type="curve" smooth="yes"/>
			<point x="239" y="410"/>
			<point x="174" y="416"/>
			<point x="113" y="460" type="curve"/>
			<point x="100" y="453" type="line"/>
			<point x="103" y="425"/>
			<point x="105" y="400"/>
			<point x="107" y="362" type="curve" smooth="yes"/>
			<point x="113" y="255"/>
			<point x="116" y="134"/>
		</contour>
	</outline>
</glyph>
<glyph name="uni11EF3" format="2">
	<advance width="0"/>
	<unicode hex="11EF3"/>
	<anchor x="-280" y="622" name="_top"/>
	<outline>
		<contour>
			<point x="-276" y="668" type="line"/>
			<point x="-214" y="731" type="line"/>
			<point x="-274" y="791" type="line"/>
			<point x="-336" y="728" type="line"/>
		</contour>
	</outline>
</glyph>
<glyph name="uni11EF4" format="2">
	<advance width="0"/>
	<unicode hex="11EF4"/>
	<anchor x="-352" y="-4" name="_bottom"/>
	<outline>
		<contour>
			<point x="-356" y="-182" type="line"/>
			<point x="-294" y="-119" type="line"/>
			<point x="-354" y="-59" type="line"/>
			<point x="-416" y="-122" type="line"/>
		</contour>
	</outline>
</glyph>
<glyph name="uni11EF5" format="2">
	<advance width="229"/>
	<unicode hex="11EF5"/>
	<outline>
		<contour>
			<point x="38" y="0" type="line"/>
			<point x="81" y="0" type="line"/>
			<point x="81" y="370" type="line"/>
			<point x="46" y="330" type="line"/>
			<point x="179" y="330" type="line"/>
			<point x="179" y="428" type="line"/>
			<point x="72" y="428" type="line" smooth="yes"/>
			<point x="49" y="428"/>
			<point x="46" y="427"/>
			<point x="42" y="422" type="curve" smooth="yes"/>
			<point x="38" y="417"/>
			<point x="38" y="413"/>
			<point x="38" y="396" type="curve" smooth="yes"/>
		</contour>
	</outline>
</glyph>
<glyph name="uni11EF6" format="2">
	<advance width="279"/>
	<unicode hex="11EF6"/>
	<outline>
		<contour>
			<point x="135" y="0" type="line"/>
			<point x="179" y="0" type="line"/>
			<point x="178" y="396" type="line" smooth="yes"/>
			<point x="178" y="413"/>
			<point x="179" y="417"/>
			<point x="175" y="422" type="curve" smooth="yes"/>
			<point x="171" y="427"/>
			<point x="168" y="428"/>
			<point x="145" y="428" type="curve" smooth="yes"/>
			<point x="37" y="428" type="line"/>
			<point x="37" y="330" type="line"/>
			<point x="170" y="330" type="line"/>
			<point x="135" y="370" type="line"/>
		</contour>
	</outline>
</glyph>
<glyph name="uni11EF7" format="2">
	<advance width="370"/>
	<unicode hex="11EF7"/>
	<outline>
		<contour>
			<point x="184" y="17" type="line"/>
			<point x="246" y="80" type="line"/>
			<point x="186" y="140" type="line"/>
			<point x="124" y="77" type="line"/>
		</contour>
		<contour>
			<point x="184" y="217" type="line"/>
			<point x="246" y="280" type="line"/>
			<point x="186" y="340" type="line"/>
			<point x="124" y="277" type="line"/>
		</contour>
		<contour>
			<point x="184" y="417" type="line"/>
			<point x="246" y="480" type="line"/>
			<point x="186" y="540" type="line"/>
			<point x="124" y="477" type="line"/>
		</contour>
	</outline>
</glyph>
<glyph name="uni11EF8" format="2">
	<advance width="627"/>
	<unicode hex="11EF8"/>
	<outline>
		<contour>
			<point x="466" y="188" type="line"/>
			<point x="528" y="251" type="line"/>
			<point x="468" y="311" type="line"/>
			<point x="406" y="248" type="line"/>
		</contour>
		<contour>
			<point x="164" y="8" type="line"/>
			<point x="226" y="71" type="line"/>
			<point x="166" y="131" type="line"/>
			<point x="104" y="68" type="line"/>
		</contour>
		<contour>
			<point x="164" y="188" type="line"/>
			<point x="226" y="251" type="line"/>
			<point x="166" y="311" type="line"/>
			<point x="104" y="248" type="line"/>
		</contour>
		<contour>
			<point x="314" y="108" type="line"/>
			<point x="376" y="171" type="line"/>
			<point x="316" y="231" type="line"/>
			<point x="254" y="168" type="line"/>
		</contour>
		<contour>
			<point x="164" y="368" type="line"/>
			<point x="226" y="431" type="line"/>
			<point x="166" y="491" type="line"/>
			<point x="104" y="428" type="line"/>
		</contour>
		<contour>
			<point x="314" y="288" type="line"/>
			<point x="376" y="351" type="line"/>
			<point x="316" y="411" type="line"/>
			<point x="254" y="348" type="line"/>
		</contour>
	</outline>
</glyph>
<glyph name="i_i-makasar" format="2">
	<advance width="0"/>
	<anchor x="-280" y="622" name="_top"/>
	<outline>
		<contour>
			<point x="-174" y="668" type="line"/>
			<point x="-112" y="731" type="line"/>
			<point x="-172" y="791" type="line"/>
			<point x="-234" y="728" type="line"/>
		</contour>
		<contour>
			<point x="-384" y="668" type="line"/>
			<point x="-322" y="731" type="line"/>
			<point x="-382" y="791" type="line"/>
			<point x="-444" y="728" type="line"/>
		</contour>
	</outline>
</glyph>
<glyph name="u_u-makasar" format="2">
	<advance width="0"/>
	<anchor x="-352" y="-17" name="_bottom"/>
	<outline>
		<contour>
			<point x="-246" y="-194" type="line"/>
			<point x="-184" y="-131" type="line"/>
			<point x="-244" y="-71" type="line"/>
			<point x="-306" y="-134" type="line"/>
		</contour>
		<contour>
			<point x="-456" y="-194" type="line"/>
			<point x="-394" y="-131" type="line"/>
			<point x="-454" y="-71" type="line"/>
			<point x="-516" y="-134" type="line"/>
		</contour>
	</outline>
</glyph>
